<svg width="30" height="30" viewBox="0 0 30 30" fill="none" xmlns="http://www.w3.org/2000/svg">
<path d="M13.5241 24.6678L13.5234 24.6671C10.2948 21.7394 7.65515 19.342 5.81682 17.0929C3.98398 14.8506 3 12.8169 3 10.625C3 7.03924 5.80055 4.25 9.375 4.25C11.3988 4.25 13.3496 5.19473 14.6206 6.67564L15 7.11771L15.3794 6.67564C16.6504 5.19473 18.6012 4.25 20.625 4.25C24.1995 4.25 27 7.03924 27 10.625C27 12.8169 26.016 14.8506 24.1832 17.0929C22.3448 19.342 19.7052 21.7394 16.4766 24.6671L16.4759 24.6678L15 26.0113L13.5241 24.6678Z" stroke="#FFFDFD"/>
</svg>
