<svg width="30" height="30" viewBox="0 0 30 30" fill="none" xmlns="http://www.w3.org/2000/svg">
<path d="M2.56934 15C2.56934 8.14546 8.14582 2.56897 15.0004 2.56897C21.8549 2.56897 27.4314 8.14546 27.4314 15C27.4314 21.8546 21.8549 27.431 15.0004 27.431C8.14582 27.431 2.56934 21.8546 2.56934 15ZM7.80413 17.3903C8.12246 17.5159 8.46267 17.5766 8.80478 17.5688C9.47599 17.5537 10.1146 17.2763 10.5839 16.7962C11.0532 16.316 11.3158 15.6713 11.3157 14.9999C11.3155 14.3285 11.0525 13.6839 10.583 13.204C10.1135 12.7241 9.47471 12.447 8.80349 12.4322C8.46138 12.4246 8.12121 12.4855 7.80294 12.6112C7.48467 12.7369 7.19473 12.9249 6.95013 13.1643C6.70553 13.4036 6.51121 13.6893 6.37857 14.0048C6.24593 14.3202 6.17765 14.659 6.17773 15.0012C6.17782 15.3434 6.24627 15.6821 6.37907 15.9975C6.51186 16.3129 6.70633 16.5985 6.95105 16.8377C7.19577 17.0769 7.4858 17.2648 7.80413 17.3903ZM14.011 17.3903C14.3294 17.5159 14.6696 17.5766 15.0117 17.5688C15.6829 17.5537 16.3215 17.2763 16.7908 16.7962C17.2601 16.316 17.5227 15.6713 17.5226 14.9999C17.5224 14.3285 17.2594 13.6839 16.7899 13.204C16.3203 12.7241 15.6816 12.447 15.0104 12.4322C14.6683 12.4246 14.3281 12.4855 14.0098 12.6112C13.6916 12.7369 13.4016 12.9249 13.157 13.1643C12.9124 13.4036 12.7181 13.6893 12.5855 14.0048C12.4528 14.3202 12.3845 14.659 12.3846 15.0012C12.3847 15.3434 12.4532 15.6821 12.586 15.9975C12.7188 16.3129 12.9132 16.5985 13.1579 16.8377C13.4027 17.0769 13.6927 17.2648 14.011 17.3903ZM20.2179 17.3903C20.5363 17.5159 20.8765 17.5766 21.2186 17.5688C21.8898 17.5537 22.5284 17.2763 22.9977 16.7962C23.467 16.316 23.7296 15.6713 23.7295 14.9999C23.7293 14.3285 23.4663 13.6839 22.9968 13.204C22.5272 12.7241 21.8885 12.447 21.2173 12.4322C20.8752 12.4246 20.535 12.4855 20.2167 12.6112C19.8985 12.7369 19.6085 12.9249 19.3639 13.1643C19.1193 13.4036 18.925 13.6893 18.7924 14.0048C18.6597 14.3202 18.5914 14.659 18.5915 15.0012C18.5916 15.3434 18.6601 15.6821 18.7929 15.9975C18.9257 16.3129 19.1201 16.5985 19.3648 16.8377C19.6096 17.0769 19.8996 17.2648 20.2179 17.3903Z" stroke="white"/>
</svg>
