<svg width="30" height="30" viewBox="0 0 30 30" fill="none" xmlns="http://www.w3.org/2000/svg">
<path d="M11.1218 6.93202L11.1219 6.93195C11.1792 6.43069 11.4371 5.90468 11.8203 5.50546C12.2038 5.10592 12.6705 4.87488 13.125 4.87488H16.875C17.3295 4.87488 17.7962 5.10592 18.1797 5.50546C18.5629 5.90468 18.8208 6.43069 18.8781 6.93195L18.8782 6.93202L19.3081 10.682L19.3588 11.1251H19.8048H21.8751C22.0249 11.1251 22.2166 11.205 22.3808 11.3692C22.5449 11.5334 22.6249 11.725 22.6249 11.8749V11.8998L22.6274 11.9246L23.8745 24.3952C23.8677 24.5418 23.7877 24.7239 23.6308 24.8809C23.4666 25.0451 23.2749 25.1251 23.1249 25.1251H6.8751C6.72513 25.1251 6.53338 25.0451 6.36918 24.8809C6.21226 24.7239 6.13227 24.5418 6.12547 24.3952L7.37262 11.9246L7.3751 11.8998V11.8749C7.3751 11.725 7.45505 11.5334 7.61923 11.3692C7.78339 11.2051 7.97516 11.1251 8.1252 11.1251H10.1952H10.6412L10.6919 10.682L11.1218 6.93202ZM18.5547 11.1251H19.1153L19.0515 10.5682L18.6219 6.8182C18.6219 6.81819 18.6219 6.81818 18.6219 6.81817C18.5726 6.38786 18.3617 5.97631 18.0684 5.67087C17.7755 5.36576 17.3581 5.12498 16.875 5.12498H13.125C12.6419 5.12498 12.2245 5.36576 11.9316 5.67087C11.6383 5.97631 11.4274 6.38786 11.3781 6.81817C11.3781 6.81818 11.3781 6.81819 11.3781 6.8182L10.9485 10.5682L10.8848 11.1251H11.4453H18.5547Z" stroke="white"/>
</svg>
