<svg width="20" height="22" viewBox="0 0 20 22" fill="none" xmlns="http://www.w3.org/2000/svg">
<path d="M8.125 0.374878C6.8749 0.374878 5.7673 1.63307 5.6251 2.87507L5.1952 6.62507H3.1252C2.5 6.62507 1.8751 7.24998 1.8751 7.87488L0.625 20.375C0.625 20.9999 1.2499 21.6251 1.8751 21.6251H18.1249C18.7501 21.6251 19.375 20.9999 19.375 20.375L18.1249 7.87488C18.1249 7.24998 17.5 6.62507 16.8751 6.62507H14.8048L14.3749 2.87507C14.2327 1.63307 13.1251 0.374878 11.875 0.374878H8.125ZM8.125 1.62498H11.875C12.4999 1.62498 13.054 2.25407 13.1251 2.87507L13.5547 6.62507H6.4453L6.8749 2.87507C6.946 2.25407 7.5001 1.62498 8.125 1.62498Z" fill="#FFFDFD"/>
</svg>
